<svg width="7" height="9" viewBox="0 0 7 9" fill="none" xmlns="http://www.w3.org/2000/svg">
<path d="M6.564 7.752V9H0.876V7.86L3.756 4.764C4.092 4.396 4.336 4.06 4.488 3.756C4.648 3.444 4.728 3.136 4.728 2.832C4.728 2.448 4.616 2.16 4.392 1.968C4.176 1.768 3.856 1.668 3.432 1.668C2.672 1.668 1.908 1.96 1.14 2.544L0.624 1.416C0.96 1.12 1.388 0.884 1.908 0.707999C2.436 0.523999 2.964 0.431999 3.492 0.431999C4.34 0.431999 5.012 0.639999 5.508 1.056C6.004 1.472 6.252 2.032 6.252 2.736C6.252 3.224 6.148 3.684 5.94 4.116C5.732 4.54 5.38 5.016 4.884 5.544L2.808 7.752H6.564Z" fill="#2A2A2A"/>
</svg>
